<svg height="24" width="24" xmlns="http://www.w3.org/2000/svg"><g transform="translate(0 -1028.4)"><path d="m12 0c-1.066 4.13-2.8083 8.1423-5.375 11.562-2.5026 2.78-2.0177 7.549.9062 9.844 1.2394 1.041 2.8608 1.586 4.4688 1.594 1.608-.008 3.229-.553 4.469-1.594 2.924-2.295 3.409-7.064.906-9.844-2.567-3.4197-4.309-7.432-5.375-11.562z" fill="#2980b9" transform="translate(0 1028.4)"/><path d="m12.02 1029.3c-.591 2.9-1.557 5.7-2.9802 8.1-1.3876 1.9-1.1187 5.2.5024 6.8.6868.7 1.5858 1.1 2.4778 1.1.891 0 1.79-.4 2.478-1.1 1.621-1.6 1.89-4.9.502-6.8-1.423-2.4-2.389-5.2-2.98-8.1z" fill="#3498db"/></g></svg>